<?xml version="1.0" standalone="no"?>
<!DOCTYPE svg PUBLIC "-//W3C//DTD SVG 20010904//EN"
 "http://www.w3.org/TR/2001/REC-SVG-20010904/DTD/svg10.dtd">
<svg version="1.0" xmlns="http://www.w3.org/2000/svg"
 width="192.000000pt" height="192.000000pt" viewBox="0 0 192.000000 192.000000"
 preserveAspectRatio="xMidYMid meet">
<metadata>
Created by potrace 1.14, written by Peter Selinger 2001-2017
</metadata>
<g transform="translate(0.000000,192.000000) scale(0.100000,-0.100000)"
fill="#000000" stroke="none">
<path d="M570 1862 c-35 -5 -60 -31 -60 -59 0 -13 -14 -56 -30 -96 -18 -41
-30 -84 -28 -102 3 -28 6 -30 43 -31 30 0 46 5 63 23 12 13 22 31 22 39 0 26
18 15 59 -37 l41 -51 -64 -62 c-34 -33 -70 -72 -79 -84 l-15 -24 -96 49 -96
49 59 29 c53 25 58 30 48 46 -6 10 -24 23 -39 30 -31 12 -60 5 -163 -42 -65
-29 -74 -43 -70 -95 2 -16 6 -58 9 -94 9 -95 22 -127 49 -125 33 3 77 23 83
38 3 8 1 32 -5 55 -5 23 -6 44 -2 47 6 3 143 -58 159 -71 2 -1 -8 -31 -22 -66
-14 -36 -28 -83 -32 -106 -4 -23 -9 -42 -13 -43 -97 -13 -124 -3 -79 29 10 7
22 22 28 32 8 16 4 23 -25 46 l-35 26 -37 -27 c-99 -74 -175 -141 -188 -165
-13 -26 -12 -28 55 -93 93 -88 109 -98 131 -86 10 5 22 8 26 8 13 -3 43 13 43
22 0 6 -21 32 -46 59 l-47 50 39 1 c22 1 58 2 80 3 l42 2 -4 -46 c-7 -83 -7
-135 0 -190 l8 -55 -51 -22 c-53 -22 -54 -20 -14 33 37 49 38 73 3 86 -17 5
-30 14 -30 18 0 14 -48 -15 -69 -41 -10 -13 -38 -55 -61 -94 -23 -38 -49 -75
-57 -80 -8 -6 -16 -27 -18 -46 l-3 -36 81 -18 c45 -9 95 -24 110 -32 16 -8 38
-16 49 -18 21 -4 88 19 88 30 0 20 -24 44 -60 60 l-42 19 44 22 c24 13 48 23
54 24 6 0 21 -19 34 -42 13 -24 46 -67 73 -95 55 -59 56 -54 -13 -133 l-30
-35 6 40 c7 48 -8 70 -52 78 -28 5 -33 2 -47 -29 -10 -19 -17 -45 -17 -57 0
-12 -10 -56 -21 -97 -28 -97 -30 -117 -14 -130 23 -19 52 -19 112 0 32 10 81
21 108 24 28 3 69 8 91 11 66 7 95 21 87 42 -14 37 -45 54 -93 51 -26 -2 -46
1 -46 7 -1 15 68 95 81 95 6 0 36 -13 66 -29 63 -35 185 -77 249 -86 74 -12
211 -13 273 -4 150 24 330 118 422 221 102 113 175 254 190 365 7 50 8 267 1
290 -2 10 -7 34 -10 53 -8 50 -43 146 -78 211 -34 66 -105 142 -174 190 -27
18 -64 47 -81 63 -56 50 -167 91 -283 103 -84 10 -204 9 -254 0 -43 -8 -160
-53 -191 -73 -23 -15 -16 -20 -89 69 l-39 48 69 -3 c80 -2 147 16 142 39 -2 9
-14 24 -28 34 -24 18 -39 21 -165 35 -33 3 -67 7 -75 8 -8 1 -26 0 -40 -2z
m650 -187 c30 -3 73 -11 95 -16 22 -6 47 -12 55 -14 37 -8 73 -27 124 -67 30
-24 78 -61 108 -82 76 -57 133 -128 168 -212 54 -130 64 -185 64 -344 -1 -132
-3 -152 -28 -225 -15 -44 -30 -82 -34 -85 -4 -3 -16 -21 -26 -40 -28 -50 -101
-142 -131 -164 -15 -11 -38 -30 -53 -43 -61 -53 -229 -126 -317 -138 -45 -6
-189 -7 -220 -1 -11 2 -42 7 -69 10 -81 11 -266 90 -266 113 0 5 20 29 45 55
47 51 49 68 10 100 -23 19 -73 17 -89 -4 -6 -8 -24 -29 -39 -48 l-28 -33 -27
20 c-15 10 -48 50 -74 89 l-47 69 94 45 c52 25 94 51 94 58 1 7 -10 24 -23 37
-27 27 -26 27 -124 -13 -34 -14 -66 -22 -70 -18 -11 11 -8 244 3 255 6 6 42
11 80 12 94 3 106 7 103 33 -5 35 -46 56 -110 56 l-57 0 6 33 c5 29 52 157 57
157 1 0 21 -9 44 -20 49 -24 51 -24 101 -4 36 14 38 17 27 39 -6 13 -35 35
-64 49 l-53 26 35 43 c19 24 53 59 75 79 l40 36 25 -29 c14 -16 26 -36 26 -44
0 -24 44 -23 97 2 37 17 36 27 -14 92 -18 24 -33 48 -33 52 0 12 96 54 165 73
86 23 124 25 255 11z"/>
<path d="M1078 1519 c-145 -40 -263 -136 -353 -289 -61 -101 -79 -165 -78
-275 1 -149 49 -260 163 -375 90 -92 221 -164 339 -186 14 -3 28 -7 33 -10 15
-9 127 -6 185 6 175 36 311 170 373 369 70 222 29 484 -97 617 -36 38 -136
104 -178 117 -108 32 -143 39 -225 41 -69 3 -113 -2 -162 -15z m302 -128 c25
-12 64 -34 88 -48 35 -20 45 -23 58 -12 31 25 94 -65 130 -186 20 -68 21 -196
3 -284 -13 -68 -66 -182 -109 -236 -103 -131 -276 -169 -470 -106 -93 31 -129
53 -204 121 -32 29 -107 125 -97 125 1 0 -3 13 -9 29 -26 70 -32 189 -13 264
39 151 182 301 332 346 73 23 234 15 291 -13z"/>
<path d="M1033 1329 c-27 -10 -28 -23 -9 -101 l13 -57 -45 -38 c-25 -21 -54
-47 -65 -58 -18 -20 -18 -20 3 -23 13 -2 36 10 60 32 44 39 60 45 60 20 0 -22
90 -192 105 -198 13 -5 24 2 44 26 11 15 9 24 -16 65 -37 61 -73 138 -73 157
0 15 122 110 173 136 36 18 45 37 22 46 -21 8 -59 -14 -139 -78 -33 -26 -63
-48 -67 -48 -4 0 -10 22 -14 49 -9 63 -23 82 -52 70z"/>
<path d="M1353 1302 c-15 -2 -23 -11 -24 -25 -4 -58 -2 -149 4 -209 7 -63 6
-68 -15 -79 -12 -6 -39 -28 -60 -47 -21 -19 -52 -47 -68 -62 -31 -28 -39 -50
-17 -50 14 1 33 14 106 78 29 26 59 47 64 47 6 0 22 -28 36 -62 24 -63 24 -63
5 -99 -40 -75 -177 -164 -252 -164 -96 0 -213 116 -246 243 -18 69 -17 170 2
225 16 48 9 62 -34 62 -29 0 -54 -66 -57 -155 -1 -44 18 -148 35 -189 50 -121
129 -189 255 -221 110 -28 220 4 309 92 21 21 52 45 69 53 16 8 31 23 33 33 2
10 -15 63 -38 117 -24 54 -40 105 -37 113 3 7 48 39 101 71 53 31 96 61 96 67
0 26 -35 16 -111 -31 -45 -28 -87 -52 -93 -53 -12 -2 -33 138 -29 198 3 48 -1
53 -34 47z"/>
</g>
</svg>
